<svg xmlns="http://www.w3.org/2000/svg" version="1.1" xmlns:xlink="http://www.w3.org/1999/xlink" xmlns:svgjs="http://svgjs.dev/svgjs" width="1000" height="1000" viewBox="0 0 1000 1000"><g transform="matrix(1,0,0,1,0,0)"><svg viewBox="0 0 280 280" data-background-color="#ffffff" preserveAspectRatio="xMidYMid meet" height="1000" width="1000" xmlns="http://www.w3.org/2000/svg" xmlns:xlink="http://www.w3.org/1999/xlink"><defs></defs><g id="tight-bounds" transform="matrix(1,0,0,1,0,0)"><svg viewBox="0 0 280 280" height="280" width="280"><g><svg viewBox="0 0 280 280" height="280" width="280"><g><svg viewBox="0 0 280 280" height="280" width="280"><g><svg viewBox="0 0 280 280" height="280" width="280"><g><svg viewBox="0 0 280 280" height="280" width="280"><g transform="matrix(1,0,0,1,58.051157789025424,57.50420886156945)"><svg viewBox="0 0 163.89768442194915 164.9915822768611" height="164.9915822768611" width="163.89768442194915"><g><circle r="82" cx="82.49579113843055" cy="82.49579113843055" fill="#a5ff00" data-fill-palette-color="accent"></circle><svg xmlns="http://www.w3.org/2000/svg" xmlns:xlink="http://www.w3.org/1999/xlink" version="1.0" x="24.515274514135744" y="24.515274514135744" viewBox="5.228514671325684 23.319278717041016 89.53907775878906 52.513057708740234" enable-background="new 0 0 100 100" xml:space="preserve" height="115.96103324858962" width="114.86713539367767" class="icon-o-0" data-fill-palette-color="quaternary" id="o-0"><path d="M94.199 37.418c-1.515-3.494-5.575-5.095-9.064-3.58l-3.876 1.59L67.425 41.532 29.727 24.068c-0.744-0.48-1.628-0.749-2.577-0.749-2.647 0-4.788 2.14-4.787 4.788 0 1.153 0.41 2.216 1.089 3.04l20.282 20.855L30.763 57.733l-18.008-9.704c-0.701-0.362-1.504-0.566-2.351-0.567-2.858 0-5.176 2.318-5.175 5.176 0 0.96 0.269 1.855 0.722 2.626l18.201 20.568 66.003-29.136 0.464-0.215C94.112 44.966 95.708 40.906 94.199 37.418zM52.013 57.997c-1.454 0-2.632-1.178-2.632-2.632 0-1.454 1.178-2.632 2.632-2.632 1.454 0 2.632 1.178 2.632 2.632C54.645 56.819 53.467 57.997 52.013 57.997zM60.219 54.436c-1.454 0-2.632-1.178-2.632-2.632 0-1.454 1.178-2.632 2.632-2.632 1.454 0 2.632 1.178 2.632 2.632C62.851 53.258 61.673 54.436 60.219 54.436zM68.58 50.721c-1.454 0-2.632-1.178-2.632-2.633 0-1.454 1.178-2.632 2.632-2.632s2.632 1.178 2.632 2.632C71.212 49.542 70.033 50.721 68.58 50.721z" fill="#000000" data-fill-palette-color="quaternary"></path></svg></g></svg></g><path d="M26.36 101.229v0c-0.874 2.628-2.299 4.387-4.273 5.277-1.974 0.89-4.276 0.898-6.904 0.023v0l0.932-2.798c1.06 0.323 2.098 0.45 3.113 0.379 1.016-0.071 1.922-0.404 2.719-1 0.797-0.596 1.4-1.511 1.811-2.747v0c0.621-1.866 0.508-3.37-0.337-4.512-0.846-1.142-2.11-1.993-3.791-2.553v0l-19.63-6.531 0.918-2.76 19.63 6.532c2.707 0.901 4.562 2.277 5.565 4.128 1.004 1.852 1.086 4.039 0.247 6.562zM57.614 53.402l-11.957 13.327-21.644-19.42 11.956-13.327 1.979 1.776-10.015 11.162 7.793 6.991 9.182-10.235 1.979 1.776-9.183 10.235 7.916 7.102 10.015-11.163zM92.695 31.943l-2.642 1.215-11.036-24.005-7.096 3.262-1.111-2.416 16.834-7.739 1.111 2.416-7.096 3.262zM145.175 9.036l-13.281 0.59-0.11-2.49 13.28-0.59zM195.038 36.161l-16.63-6.634 10.775-27.009 2.701 1.077-9.79 24.54 13.929 5.557zM225.573 60.997v0c-1.616-1.674-2.552-3.551-2.809-5.632-0.257-2.081 0.114-4.229 1.114-6.443 0.999-2.215 2.575-4.361 4.727-6.438v0c2.132-2.058 4.323-3.547 6.572-4.467 2.249-0.92 4.414-1.219 6.494-0.898 2.08 0.321 3.928 1.318 5.543 2.992v0c1.635 1.694 2.571 3.581 2.808 5.661 0.237 2.08-0.144 4.228-1.142 6.443-0.999 2.215-2.565 4.352-4.697 6.41v0c-2.152 2.077-4.353 3.576-6.602 4.495-2.249 0.92-4.404 1.219-6.465 0.899-2.061-0.321-3.908-1.328-5.543-3.022zM227.546 59.093v0c1.712 1.774 3.864 2.458 6.456 2.054 2.593-0.404 5.294-1.963 8.104-4.674v0c2.81-2.712 4.463-5.356 4.959-7.933 0.496-2.577-0.111-4.752-1.823-6.525v0c-1.692-1.754-3.84-2.433-6.442-2.039-2.602 0.394-5.308 1.948-8.118 4.66v0c-2.81 2.712-4.458 5.361-4.945 7.947-0.487 2.587 0.116 4.757 1.809 6.51zM250.971 101.873v0c-0.725-1.887-0.815-3.781-0.27-5.682 0.545-1.901 1.703-3.674 3.474-5.319 1.771-1.645 4.13-3.034 7.077-4.166v0c2.947-1.133 5.634-1.668 8.061-1.607 2.427 0.061 4.494 0.654 6.202 1.777 1.708 1.124 2.959 2.72 3.753 4.788v0c0.636 1.654 0.857 3.253 0.664 4.796-0.193 1.543-0.752 2.945-1.677 4.205-0.925 1.26-2.185 2.286-3.779 3.077v0l-1.163-3.024c1.555-0.894 2.671-2.043 3.349-3.446 0.677-1.403 0.693-2.944 0.047-4.624v0c-0.884-2.301-2.598-3.749-5.141-4.344-2.543-0.595-5.624-0.197-9.243 1.194v0c-2.404 0.924-4.349 2.02-5.834 3.288-1.486 1.268-2.472 2.619-2.96 4.053-0.487 1.433-0.463 2.848 0.074 4.244v0c0.447 1.163 1.104 2.061 1.969 2.692 0.866 0.632 1.864 1.049 2.996 1.252 1.131 0.203 2.316 0.237 3.555 0.102 1.239-0.135 2.445-0.413 3.618-0.834v0l-2.43-6.321 2.405-0.924 3.502 9.113-13.998 5.38-0.954-2.482 4.331-1.931-0.06-0.156c-1.708 0.033-3.218-0.343-4.528-1.13-1.311-0.787-2.324-2.111-3.04-3.971zM5.772 193.757v0c-0.893-2.673-0.806-4.972 0.259-6.896 1.063-1.932 2.931-3.344 5.603-4.237v0l0.951 2.847c-1.062 0.384-1.983 0.914-2.764 1.591-0.781 0.677-1.316 1.502-1.605 2.474-0.282 0.97-0.213 2.082 0.206 3.337v0c0.634 1.898 1.644 3.053 3.03 3.466 1.38 0.415 2.926 0.337 4.64-0.236v0l19.958-6.665 0.937 2.807-19.957 6.665c-2.752 0.919-5.102 0.93-7.051 0.034-1.947-0.89-3.349-2.619-4.207-5.187zM42.367 248.587l-12.174-13.551 22.003-19.766 12.174 13.551-2.009 1.804-10.196-11.349-7.926 7.121 9.349 10.407-2.009 1.804-9.349-10.406-8.05 7.232 10.195 11.349zM84.109 274.862l-2.69-1.236 11.224-24.422-7.219-3.318 1.127-2.453 17.128 7.871-1.128 2.453-7.219-3.317zM145.564 272.839l-13.509-0.611 0.115-2.531 13.508 0.61zM202.813 271.007l-16.926 6.733-10.933-27.483 2.75-1.094 9.935 24.974 14.176-5.639zM241.136 242.125v0c-1.646 1.702-3.522 2.719-5.627 3.053-2.105 0.333-4.303 0.032-6.596-0.905-2.287-0.942-4.523-2.469-6.708-4.583v0c-2.164-2.094-3.755-4.269-4.771-6.524-1.012-2.26-1.391-4.452-1.137-6.576 0.254-2.124 1.204-4.037 2.85-5.739v0c1.661-1.717 3.546-2.734 5.657-3.054 2.105-0.314 4.301 0 6.589 0.942 2.287 0.942 4.513 2.459 6.678 4.554v0c2.184 2.113 3.785 4.298 4.801 6.552 1.016 2.255 1.398 4.435 1.144 6.54-0.259 2.11-1.219 4.023-2.88 5.74zM239.128 240.182v0c1.743-1.801 2.362-4.01 1.859-6.626-0.499-2.621-2.176-5.313-5.032-8.077v0c-2.856-2.763-5.602-4.351-8.239-4.762-2.631-0.417-4.818 0.275-6.561 2.076v0c-1.724 1.781-2.341 3.988-1.852 6.619 0.489 2.631 2.162 5.328 5.018 8.092v0c2.856 2.763 5.607 4.346 8.253 4.748 2.646 0.402 4.83-0.288 6.554-2.07zM271.213 194.057v0c-0.741 1.918-1.967 3.408-3.676 4.469-1.709 1.061-3.794 1.607-6.255 1.635-2.454 0.031-5.18-0.532-8.176-1.69v0c-2.997-1.158-5.387-2.587-7.173-4.287-1.789-1.708-2.944-3.569-3.465-5.581-0.521-2.013-0.376-4.068 0.435-6.167v0c0.651-1.686 1.577-3.043 2.776-4.071 1.199-1.028 2.578-1.706 4.136-2.031 1.556-0.319 3.207-0.23 4.952 0.266v0l-1.187 3.071c-1.788-0.387-3.414-0.28-4.877 0.319-1.468 0.591-2.533 1.742-3.194 3.453v0c-0.904 2.338-0.6 4.597 0.91 6.776 1.508 2.186 4.103 3.991 7.784 5.414v0c2.441 0.944 4.655 1.447 6.642 1.509 1.983 0.054 3.65-0.293 5.001-1.04 1.344-0.75 2.29-1.835 2.839-3.256v0c0.457-1.182 0.575-2.305 0.356-3.37-0.226-1.067-0.694-2.065-1.404-2.992-0.713-0.921-1.582-1.755-2.608-2.5-1.026-0.745-2.128-1.361-3.306-1.846v0l-2.482 6.423-2.441-0.943 3.579-9.261 14.23 5.5-0.977 2.528-4.585-1.505-0.06 0.155c1.309 1.144 2.189 2.46 2.639 3.948 0.456 1.49 0.318 3.181-0.413 5.074zM4.415 143.947c0-1.872 1.518-3.39 3.389-3.39 1.872 0 3.39 1.518 3.39 3.39 0 1.872-1.518 3.39-3.39 3.389-1.872 0-3.39-1.518-3.389-3.389zM266.133 143.947c0-1.872 1.518-3.39 3.39-3.39 1.872 0 3.39 1.518 3.389 3.39 0 1.872-1.518 3.39-3.389 3.389-1.872 0-3.39-1.518-3.39-3.389z" fill="#000000" data-fill-palette-color="primary"></path></svg></g></svg></g></svg></g></svg></g></svg><rect width="280" height="280" fill="none" stroke="none" visibility="hidden"></rect></g></svg></g></svg>